<svg version="1.2" xmlns="http://www.w3.org/2000/svg" viewBox="0 0 237 237" width="237" height="237">
	<title>stars-ai</title>
	<style>
		.s0 { fill: #8be6d2 } 
	</style>
	<path id="&lt;Path&gt;" class="s0" d="m122.1 32.8l18.5 60c0.6 1.7 2.1 2.8 3.9 2.8l63.8-1.3c3.9-0.1 5.5 4.9 2.3 7.1l-52.3 35.8c-1.5 0.9-2.1 2.8-1.5 4.5l21 59.1c1.3 3.6-3 6.7-6.1 4.4l-51-37.9c-1.4-1-3.3-1-4.7 0l-51.1 37.9c-3.1 2.3-7.3-0.8-6-4.4l20.9-59.1c0.6-1.7 0-3.6-1.4-4.5l-52.4-35.8c-3.2-2.2-1.6-7.2 2.3-7.1l63.9 1.3c1.8 0 3.3-1.1 3.8-2.8l18.6-60c1.1-3.7 6.3-3.7 7.5 0z"/>
</svg>